<?xml version="1.0" encoding="utf-8"?><svg viewBox="0 0 502.66 502.66" xmlns="http://www.w3.org/2000/svg" xmlns:xlink="http://www.w3.org/1999/xlink"><style>:root>svg{display:none}:root>svg:target{display:block}</style><svg viewBox="0 0 24 24" id="arrow" xmlns="http://www.w3.org/2000/svg"><path d="M19.835 11.608a.55.55 0 010 .786l-4.513 4.444a.571.571 0 01-.8 0 .55.55 0 010-.786l3.549-3.5H5.561a.556.556 0 110-1.111h12.513l-3.549-3.492a.55.55 0 010-.786.569.569 0 01.8 0z" data-name="icon/green/upload"/></svg><svg data-name="ilo/light/announcements" viewBox="0 0 38.681 39.77" id="bell" xmlns="http://www.w3.org/2000/svg"><g stroke-miterlimit="10"><path d="M34.563 22.889v-7.684A15.143 15.143 0 0025.03 1.143 19.764 19.764 0 0019.209 0a17.124 17.124 0 00-5.558 1.143 14.91 14.91 0 00-9.533 14.072v7.674L.19 30.931a1.864 1.864 0 001.673 2.684h11.5v.185a5.973 5.973 0 0011.947 0v-.182h11.508a1.864 1.864 0 001.673-2.684z"/><path d="M19.336 37.77a3.978 3.978 0 003.973-3.973v-2.182H36.6l-4.036-8.264v-8.145c0-2.64-.783-5.188-2.264-7.373a13.094 13.094 0 00-5.987-4.823C23.526 2.72 21.145 2 19.209 2c-2.3 0-4.784.987-4.806.996l-.03.012A12.852 12.852 0 008.339 7.81a12.852 12.852 0 00-2.221 7.383v8.158l-4.036 8.264h13.28v2.182a3.978 3.978 0 003.974 3.973m0 2a5.973 5.973 0 01-5.974-5.973v-.182h-11.5A1.864 1.864 0 01.19 30.93l3.928-8.042v-7.674a14.91 14.91 0 019.533-14.072S16.468 0 19.21 0c2.741 0 5.82 1.143 5.82 1.143a15.143 15.143 0 019.534 14.062v7.684l3.928 8.042a1.864 1.864 0 01-1.673 2.684H25.31v.182a5.973 5.973 0 01-5.973 5.973z"/></g><path data-name="Line Copy" d="M4.857 33.038h28.572"/></svg><svg viewBox="0 0 502.664 502.664" id="icon" xmlns="http://www.w3.org/2000/svg"><path d="M153.821 358.226L0 274.337v-46.463l153.821-83.414v54.574L46.636 250.523l107.185 53.431v54.272zm26.273 29.358L282.103 115.08h32.227L212.084 387.584h-31.99zm168.749-29.358v-54.272l107.164-52.999-107.164-52.59v-53.927l153.821 83.522v46.183l-153.821 84.083z"/></svg><svg data-name="logo/pia-black-no-tagline" viewBox="0 0 259.026 33.907" id="logo" xmlns="http://www.w3.org/2000/svg"><defs><linearGradient id="da" x1="-.488" y1="-.665" x2=".565" y2=".577" gradientUnits="objectBoundingBox"><stop offset="0" stop-color="#23ff16"/><stop offset="1" stop-color="#189a33"/></linearGradient></defs><g data-name="logo/pia-black-no-tagline"><path d="M27.591 12.282h-1.377v-1.23a11.114 11.114 0 00-22.228 0v1.23H2.612A2.6 2.6 0 000 14.88v10.146a2.548 2.548 0 00.308 1.524 1.649 1.649 0 001.423.486h2.21l.337 5.343v.06a1.608 1.608 0 00.2.779 1.232 1.232 0 001.147.591h5.618l2.917-3.1h2.18l2.821 3.191h5.038a2.115 2.115 0 001.175-.21 1.814 1.814 0 00.649-1.39c.145-1.077.179-4.024.245-5.268h2.208a1.821 1.821 0 001.412-.377 2.118 2.118 0 00.312-1.435V14.881a2.605 2.605 0 00-2.609-2.599z"/><path data-name="Shape" d="M29.854 25.22c0 .665-.063 1.037-.228 1.208s-.487.265-1.153.263h-2.539l-.008.164c-.061 1.172-.1 4.307-.251 5.4-.1.708-.28 1.008-.495 1.146a1.839 1.839 0 01-.985.153h-4.882l-2.821-3.192h-2.487l-2.917 3.1H5.619a.879.879 0 01-.846-.418 1.263 1.263 0 01-.149-.6v-.062l-.36-5.688H1.731c-.661 0-.976-.123-1.144-.348a2.281 2.281 0 01-.239-1.32V14.879a2.26 2.26 0 012.264-2.251h1.723v-1.576a10.766 10.766 0 0121.532 0v1.576h1.724a2.258 2.258 0 012.262 2.251v10.34z"/><path d="M4.667 26.411h20.917v.683H4.667z"/><path data-name="Shape" d="M4.319 26.658v-13.1h.348v13.1zm21.265 0v-13.1h.349v13.1z"/><ellipse cx="7.49" cy="1.372" rx="7.49" ry="1.372" transform="translate(7.453 15.012)"/><path data-name="Shape" d="M21.936 12.873v-2a6.832 6.832 0 00-13.664-.003v2z"/><path data-name="Rectangle-path" d="M12.224 10.787h6.091v.713h-6.091z"/><circle data-name="Oval" cx="1.262" cy="1.262" r="1.262" transform="translate(11.565 6.507)"/><circle data-name="Oval" cx="1.262" cy="1.262" r="1.262" transform="translate(16.065 6.507)"/><path data-name="Rectangle-path" d="M12.651 20.485h4.584v3.425h-4.584z"/><path data-name="Shape" d="M13.35 20.137a1.685 1.685 0 011.602-1.248 1.687 1.687 0 011.6 1.247h.544a2.217 2.217 0 00-2.144-1.77 2.216 2.216 0 00-2.146 1.771zM28.82 27.387c.123 0 .235 0 .342-.01v-.382a4.588 4.588 0 01-.692.042h-2.207c-.034.619-.058 1.658-.093 2.677h.359c.03-.9.053-1.78.081-2.327z"/><path data-name="Shape" d="M29.164 27.567v-.19a11.54 11.54 0 01-.342.01h-2.209c-.029.547-.052 1.424-.081 2.326h.511a2.133 2.133 0 002.121-2.146zM3.941 27.037H1.73a2.793 2.793 0 01-.861-.107v.445a3.837 3.837 0 00.458.023h2.211l.147 2.315h.426z"/><path data-name="Shape" d="M1.327 27.399a4.072 4.072 0 01-.458-.023v.192a2.133 2.133 0 002.119 2.146h.7l-.151-2.315z"/><g data-name="Group 7"><path data-name="Shape" d="M35.078 28.4V12.277h2.884l.108 1.141a3.659 3.659 0 012.95-1.356 3.944 3.944 0 013.347 1.593 7.176 7.176 0 011.194 4.391v.162a6.98 6.98 0 01-1.223 4.311 3.915 3.915 0 01-3.3 1.619 3.626 3.626 0 01-2.85-1.228v5.49zM54.36 15.195a8.5 8.5 0 00-1.119-.086 2.279 2.279 0 00-2.314 1.195v7.619h-3.11V12.278h2.939l.085 1.384a2.883 2.883 0 012.594-1.6 3.263 3.263 0 01.968.14zm1.989 8.729V12.278h3.117v11.646zm.3-13.5a1.528 1.528 0 01-.483-1.162 1.531 1.531 0 01.468-1.148 1.758 1.758 0 011.275-.452 1.762 1.762 0 011.27.452 1.522 1.522 0 01.474 1.148 1.527 1.527 0 01-.479 1.162 1.769 1.769 0 01-1.265.452 1.765 1.765 0 01-1.264-.448zm10.071 9.7l2.163-7.846h3.25l-3.926 11.645h-2.972l-3.928-11.645h3.25zm7.611 3.023a3.183 3.183 0 01-1.125-2.497 3.293 3.293 0 011.372-2.841 6.773 6.773 0 013.966-1h1.431v-.668a1.926 1.926 0 00-.414-1.291 1.633 1.633 0 00-1.308-.489 1.858 1.858 0 00-1.233.376 1.281 1.281 0 00-.446 1.033h-3.111a3.127 3.127 0 01.625-1.868 4.117 4.117 0 011.765-1.351 6.424 6.424 0 012.562-.49 5.085 5.085 0 013.417 1.081 3.785 3.785 0 011.264 3.04v5.048a5.574 5.574 0 00.463 2.507v.182h-3.142a3.46 3.46 0 01-.311-1.04 3.766 3.766 0 01-2.94 1.259 4.129 4.129 0 01-2.835-.991zm15.21-13.731v2.862h1.988v2.282h-1.988v5.812a1.391 1.391 0 00.247.926 1.241 1.241 0 00.947.28 5 5 0 00.914-.075v2.357a6.421 6.421 0 01-1.884.28q-3.273 0-3.336-3.3v-6.279h-1.7v-2.283h1.7V9.416zm5.244 13.148a5.583 5.583 0 01-1.609-4.183v-.3a7.042 7.042 0 01.678-3.139 4.984 4.984 0 011.922-2.131 5.391 5.391 0 012.834-.747 4.839 4.839 0 013.766 1.506 6.125 6.125 0 011.372 4.273v1.27H96.33a2.889 2.889 0 00.909 1.83 2.75 2.75 0 001.922.689 3.358 3.358 0 002.808-1.3l1.528 1.71a4.667 4.667 0 01-1.894 1.545 6.212 6.212 0 01-2.648.554 5.714 5.714 0 01-4.17-1.577zm11.689 1.36V12.279h1.292v11.645zm.011-14.4a.847.847 0 01-.237-.609.867.867 0 01.237-.614.844.844 0 01.645-.252.862.862 0 01.652.252.853.853 0 01.242.615.832.832 0 01-.242.61.872.872 0 01-.652.247.852.852 0 01-.645-.248zm6.336 2.754l.043 1.991a4.627 4.627 0 011.637-1.641 4.243 4.243 0 012.163-.566 3.494 3.494 0 012.787 1.055 4.757 4.757 0 01.926 3.164v7.641h-1.283V16.27a3.557 3.557 0 00-.66-2.324 2.593 2.593 0 00-2.082-.764 3.264 3.264 0 00-2.115.747 4.383 4.383 0 00-1.362 2.018v7.974h-1.281V12.278zm13.213-2.981v2.981h2.411v1.055h-2.411v7.764a2.428 2.428 0 00.35 1.444 1.355 1.355 0 001.168.474 8 8 0 001.044-.108l.054 1.045a4.218 4.218 0 01-1.377.181 2.3 2.3 0 01-1.926-.77 3.623 3.623 0 01-.6-2.265v-7.765h-2.144v-1.055h2.142V9.297zm7.236 14.11a4.986 4.986 0 01-1.867-2.04 6.365 6.365 0 01-.667-2.933v-.463a6.848 6.848 0 01.651-3.025 5.194 5.194 0 011.813-2.114 4.47 4.47 0 012.518-.77 4.206 4.206 0 013.364 1.448 5.874 5.874 0 011.242 3.952v.721h-8.308v.248a4.878 4.878 0 001.136 3.3 3.611 3.611 0 002.857 1.319 4.206 4.206 0 001.827-.376 4.036 4.036 0 001.436-1.2l.808.613a4.7 4.7 0 01-4.123 2.055 5.062 5.062 0 01-2.687-.735zm15.272-10.031a4.863 4.863 0 00-.872-.075 3.15 3.15 0 00-2.04.672 3.682 3.682 0 00-1.189 1.954v8h-1.281V12.278h1.259l.021 1.851a3.425 3.425 0 013.282-2.067 2.123 2.123 0 01.85.14zm3.592-1.098l.043 1.991a4.627 4.627 0 011.637-1.641 4.243 4.243 0 012.163-.566 3.494 3.494 0 012.787 1.055 4.757 4.757 0 01.926 3.164v7.641h-1.283V16.27a3.557 3.557 0 00-.66-2.324 2.593 2.593 0 00-2.082-.764 3.264 3.264 0 00-2.115.747 4.383 4.383 0 00-1.362 2.018v7.974h-1.281V12.278zm13.036 11.129a4.986 4.986 0 01-1.867-2.04 6.365 6.365 0 01-.667-2.933v-.463a6.848 6.848 0 01.651-3.025 5.194 5.194 0 011.813-2.114 4.47 4.47 0 012.518-.77 4.206 4.206 0 013.364 1.448 5.874 5.874 0 011.242 3.952v.721h-8.308v.248a4.878 4.878 0 001.136 3.3 3.611 3.611 0 002.857 1.319 4.206 4.206 0 001.827-.376 4.036 4.036 0 001.436-1.2l.808.613a4.7 4.7 0 01-4.123 2.055 5.062 5.062 0 01-2.687-.735zm11.894-14.11v2.981h2.411v1.055h-2.411v7.764a2.428 2.428 0 00.35 1.444 1.355 1.355 0 001.168.474 8 8 0 001.044-.108l.054 1.045a4.218 4.218 0 01-1.377.181 2.3 2.3 0 01-1.926-.77 3.623 3.623 0 01-.6-2.265v-7.765h-2.144v-1.055h2.142V9.297zm5.847 13.906a3.052 3.052 0 01-1.039-2.367 3.116 3.116 0 011.416-2.691 6.8 6.8 0 013.944-.991h2.34v-1.322a2.554 2.554 0 00-.774-1.966 3.183 3.183 0 00-2.244-.716 3.506 3.506 0 00-2.228.689 2.044 2.044 0 00-.884 1.66l-1.291-.011a2.99 2.99 0 011.291-2.4 4.968 4.968 0 013.177-1.022 4.532 4.532 0 013.072.974 3.5 3.5 0 011.156 2.718v5.508a6.835 6.835 0 00.355 2.53v.128h-1.377a6.093 6.093 0 01-.248-1.624 4.486 4.486 0 01-1.727 1.361 5.285 5.285 0 01-2.222.479 3.9 3.9 0 01-2.717-.937zm16.004-.151a3.4 3.4 0 002.255-.759 2.672 2.672 0 00.985-1.964h1.238a3.646 3.646 0 01-.667 1.943 4.182 4.182 0 01-1.63 1.372 4.92 4.92 0 01-2.18.495 4.5 4.5 0 01-3.632-1.593 6.438 6.438 0 01-1.34-4.282v-.389a7.28 7.28 0 01.6-3.046 4.639 4.639 0 011.73-2.044 4.765 4.765 0 012.631-.721 4.492 4.492 0 013.158 1.141 4.159 4.159 0 011.329 3h-1.238a3.168 3.168 0 00-.985-2.206 3.191 3.191 0 00-2.265-.835 3.212 3.212 0 00-2.707 1.257 5.7 5.7 0 00-.963 3.53v.376a5.576 5.576 0 00.963 3.477 3.238 3.238 0 002.718 1.248zm11.685 0a3.4 3.4 0 002.255-.759 2.672 2.672 0 00.985-1.964h1.238a3.646 3.646 0 01-.667 1.943 4.182 4.182 0 01-1.63 1.372 4.92 4.92 0 01-2.18.495 4.5 4.5 0 01-3.632-1.593 6.438 6.438 0 01-1.34-4.282v-.389a7.28 7.28 0 01.6-3.046 4.639 4.639 0 011.73-2.044 4.765 4.765 0 012.631-.721 4.492 4.492 0 013.158 1.141 4.159 4.159 0 011.329 3h-1.238a3.168 3.168 0 00-.985-2.206 3.191 3.191 0 00-2.265-.835 3.212 3.212 0 00-2.707 1.257 5.7 5.7 0 00-.963 3.53v.376a5.576 5.576 0 00.963 3.477 3.238 3.238 0 002.718 1.248zm9.205.355a4.986 4.986 0 01-1.867-2.04 6.365 6.365 0 01-.667-2.933v-.463a6.848 6.848 0 01.651-3.025 5.194 5.194 0 011.813-2.114 4.47 4.47 0 012.518-.77 4.206 4.206 0 013.364 1.448 5.874 5.874 0 011.242 3.952v.721h-8.308v.248a4.878 4.878 0 001.136 3.3 3.611 3.611 0 002.857 1.319 4.206 4.206 0 001.827-.376 4.036 4.036 0 001.436-1.2l.808.613a4.7 4.7 0 01-4.123 2.055 5.062 5.062 0 01-2.687-.735zm16.867-2.443a1.837 1.837 0 00-.77-1.539 5.927 5.927 0 00-2.319-.909 10.433 10.433 0 01-2.405-.752 3.2 3.2 0 01-1.27-1.04 2.593 2.593 0 01-.414-1.485 2.772 2.772 0 011.151-2.275 4.649 4.649 0 012.949-.9 4.794 4.794 0 013.127.963 3.093 3.093 0 011.178 2.514h-1.291a2.088 2.088 0 00-.855-1.7 3.365 3.365 0 00-2.159-.677 3.361 3.361 0 00-2.039.566 1.743 1.743 0 00-.77 1.469 1.588 1.588 0 00.641 1.351 6.769 6.769 0 002.335.877 10.982 10.982 0 012.54.85 3.291 3.291 0 011.254 1.087 2.784 2.784 0 01.409 1.539 2.79 2.79 0 01-1.189 2.357 5.077 5.077 0 01-3.1.883 5.219 5.219 0 01-3.3-.984 3.03 3.03 0 01-1.267-2.495h1.292a2.24 2.24 0 00.952 1.76 3.894 3.894 0 002.319.629 3.665 3.665 0 002.175-.589 1.786 1.786 0 00.826-1.5zm11.49 0a1.837 1.837 0 00-.77-1.539 5.927 5.927 0 00-2.319-.909 10.433 10.433 0 01-2.405-.752 3.2 3.2 0 01-1.27-1.04 2.593 2.593 0 01-.414-1.485 2.772 2.772 0 011.151-2.275 4.649 4.649 0 012.949-.9 4.794 4.794 0 013.127.963 3.093 3.093 0 011.178 2.514h-1.291a2.088 2.088 0 00-.855-1.7 3.365 3.365 0 00-2.159-.677 3.361 3.361 0 00-2.039.566 1.743 1.743 0 00-.77 1.469 1.588 1.588 0 00.641 1.351 6.769 6.769 0 002.335.877 10.982 10.982 0 012.54.85 3.291 3.291 0 011.254 1.087 2.784 2.784 0 01.409 1.539 2.79 2.79 0 01-1.189 2.357 5.077 5.077 0 01-3.1.883 5.219 5.219 0 01-3.3-.984 3.03 3.03 0 01-1.267-2.495h1.292a2.24 2.24 0 00.952 1.76 3.894 3.894 0 002.319.629 3.665 3.665 0 002.175-.589 1.784 1.784 0 00.826-1.5zm6.171-10.298V7.252h1.131a1.341 1.341 0 01.887.262.943.943 0 01.31.764.918.918 0 01-.172.556 1.025 1.025 0 01-.48.354l.8 1.449v.027h-.476l-.74-1.381h-.8v1.383z"/><path data-name="Shape" d="M251.808 9.01a3.609 3.609 0 113.609 3.609 3.614 3.614 0 01-3.609-3.609z"/></g></g></svg><svg viewBox="0 0 41.847 41" id="popular" xmlns="http://www.w3.org/2000/svg"><g transform="translate(1)" stroke-miterlimit="10"><g data-name="Combined Shape"><path d="M34.46 40a1.3 1.3 0 01-1.275-1.265A32.412 32.412 0 002.135 7.641 1.3 1.3 0 01.87 6.366V1.231A1.231 1.231 0 012.135 0a39.85 39.85 0 0127 11.718 39.9 39.9 0 0111.712 27.017A1.23 1.23 0 0139.62 40zm-13.615 0a1.331 1.331 0 01-1.292-1.26 18.656 18.656 0 00-5.447-12.025A18.616 18.616 0 002.125 21.26 1.328 1.328 0 01.87 19.966v-5.133a1.213 1.213 0 011.255-1.222 26.266 26.266 0 0117.387 7.717 26.361 26.361 0 017.718 17.407A1.216 1.216 0 0126.012 40z"/><path d="M38.815 38c-.49-9.383-4.411-18.187-11.095-24.868C21.044 6.449 12.247 2.526 2.87 2.033v3.641C20.156 6.678 34.157 20.7 35.152 38h3.663m-13.637 0a24.38 24.38 0 00-7.081-15.259c-4.11-4.116-9.489-6.61-15.227-7.078v3.652a20.68 20.68 0 0112.651 5.988A20.71 20.71 0 0121.498 38h3.68m14.442 2h-5.16c-.693 0-1.248-.574-1.276-1.265C32.54 21.89 18.957 8.293 2.134 7.641 1.443 7.613.87 7.056.87 6.366V1.23C.87.54 1.442-.023 2.135 0c10.522.332 20.03 4.74 27 11.717 6.967 6.965 11.382 16.49 11.712 27.017A1.23 1.23 0 0139.62 40zm-13.608 0h-5.167c-.69 0-1.248-.574-1.293-1.26-.302-4.547-2.21-8.797-5.447-12.025a18.616 18.616 0 00-11.98-5.455C1.437 21.213.87 20.656.87 19.966v-5.133c0-.692.567-1.252 1.255-1.222 6.777.317 12.89 3.212 17.387 7.717 4.51 4.513 7.393 10.63 7.718 17.407A1.216 1.216 0 0126.012 40z"/></g><circle data-name="Oval 3" cx="5.217" cy="5.217" r="5.217" transform="translate(0 29.565)"/></g></svg><svg viewBox="0 0 22 19" id="trigon" xmlns="http://www.w3.org/2000/svg"><path d="M0 19L11 0l11 19z"/></svg></svg>